<?xml version="1.0" encoding="utf-8"?>
<!-- Generator: Adobe Illustrator 16.0.0, SVG Export Plug-In . SVG Version: 6.00 Build 0)  -->
<!DOCTYPE svg PUBLIC "-//W3C//DTD SVG 1.1//EN" "http://www.w3.org/Graphics/SVG/1.1/DTD/svg11.dtd">
<svg version="1.1" id="Layer_1" xmlns="http://www.w3.org/2000/svg" xmlns:xlink="http://www.w3.org/1999/xlink" x="0px" y="0px"
	 width="800px" height="285.892px" viewBox="0 0 800 285.892" enable-background="new 0 0 800 285.892" xml:space="preserve">
<path fill-rule="evenodd" clip-rule="evenodd" d="M91.903,165.604V71.842c0-20.494-6.166-30.746-18.502-30.746
	c-12.533,0-18.804,10.251-18.804,30.746v93.763c0,21.717,6.366,32.578,19.105,32.578C85.837,198.183,91.903,187.321,91.903,165.604z
	 M144.434,68.191v92.849c0,26.588-5.174,46.069-15.521,58.449c-11.143,13.192-29.545,19.783-55.21,19.783
	c-25.867,0-44.471-6.591-55.815-19.783C7.345,207.109,2.072,187.628,2.072,161.04V68.191c0-22.528,6.466-39.679,19.399-51.45
	C33.809,5.579,51.219,0,73.703,0c22.282,0,39.491,5.579,51.627,16.741C138.067,28.513,144.434,45.663,144.434,68.191z"/>
<path fill-rule="evenodd" clip-rule="evenodd" d="M180.947,98.329h-18.803v-35.01h18.803V14.615h47.453v48.704h22.684v35.01h-22.684
	v89.806c0,7.916,3.485,11.872,10.448,11.872c2.385-0.403,6.466-0.609,12.236-0.609v34.096c-12.137,1.821-22.288,2.736-30.444,2.736
	c-26.463,0-39.693-13.085-39.693-39.265V98.329z"/>
<path fill-rule="evenodd" clip-rule="evenodd" d="M311.474,113.245v76.105c0.997,9.945,5.87,14.921,14.627,14.921
	c8.753,0,13.626-4.976,14.623-14.921v-76.105c0-13.193-4.877-19.789-14.623-19.789C316.351,93.456,311.474,100.052,311.474,113.245z
	 M264.021,186.309V116.9c0-38.968,20.694-58.45,62.08-58.45c41.382,0,62.075,19.481,62.075,58.45v69.408
	c0,35.313-20.693,52.964-62.075,52.964C284.715,239.272,264.021,221.622,264.021,186.309z"/>
<polygon fill-rule="evenodd" clip-rule="evenodd" points="447.674,233.796 400.222,233.796 400.222,5.477 447.674,5.477 
	447.674,120.25 448.271,120.25 480.803,63.319 532.732,63.319 485.576,131.815 533.329,233.796 483.486,233.796 455.734,168.042 
	447.674,179.001 "/>
<path fill-rule="evenodd" clip-rule="evenodd" d="M585.067,113.245v76.105c0.996,9.945,5.869,14.921,14.627,14.921
	c8.753,0,13.624-4.976,14.624-14.921v-76.105c0-13.193-4.877-19.789-14.624-19.789C589.944,93.456,585.067,100.052,585.067,113.245z
	 M537.614,186.309V116.9c0-38.968,20.694-58.45,62.08-58.45c41.383,0,62.075,19.481,62.075,58.45v69.408
	c0,35.313-20.692,52.964-62.075,52.964C558.309,239.272,537.614,221.622,537.614,186.309z"/>
<path fill-rule="evenodd" clip-rule="evenodd" d="M800.959,126.642h-44.768l-0.301-3.047c-0.2-3.651-0.797-10.146-1.788-19.482
	c-2.191-7.102-6.469-10.657-12.834-10.657c-9.549,0-14.327,6.903-14.327,20.703v70.324c0,13.192,5.074,19.788,15.221,19.788
	c7.563,0,12.234-4.976,14.029-14.921c0.396-2.229,0.597-10.451,0.597-24.655h45.959c0,18.061-1.293,31.559-3.881,40.485
	c-5.77,19.892-20.691,30.947-44.764,33.182c-6.568,0.607-11.842,0.91-15.822,0.91c-39.196,0-58.79-17.65-58.79-52.964V116.9
	c0-39.172,19.594-58.654,58.79-58.45c23.081,0.199,39.597,5.783,49.543,16.74C797.975,85.949,802.351,103.099,800.959,126.642z"/>
<rect x="693.239" y="254.802" width="93.009" height="31.09"/>
</svg>
